<mxfile host="app.diagrams.net" modified="2024-02-11T16:12:54.776Z" agent="Mozilla/5.0 (Windows NT 10.0; Win64; x64) AppleWebKit/537.36 (KHTML, like Gecko) Chrome/121.0.0.0 Safari/537.36" etag="aqmu5jIHmhRjnKok7-mv" version="23.1.2" type="device">
  <diagram name="PÃ¡gina-1" id="taj6eajACPBFfB_bp7X4">
    <mxGraphModel dx="1912" dy="487" grid="1" gridSize="10" guides="1" tooltips="1" connect="1" arrows="1" fold="1" page="1" pageScale="1" pageWidth="1169" pageHeight="827" math="1" shadow="0">
      <root>
        <mxCell id="0" />
        <mxCell id="1" parent="0" />
        <mxCell id="V8lNUS2OXUibBGvljUvQ-21" style="edgeStyle=orthogonalEdgeStyle;rounded=0;orthogonalLoop=1;jettySize=auto;html=1;entryX=0;entryY=0.25;entryDx=0;entryDy=0;" edge="1" parent="1" source="V8lNUS2OXUibBGvljUvQ-20" target="V8lNUS2OXUibBGvljUvQ-7">
          <mxGeometry relative="1" as="geometry" />
        </mxCell>
        <mxCell id="V8lNUS2OXUibBGvljUvQ-26" style="edgeStyle=orthogonalEdgeStyle;rounded=0;orthogonalLoop=1;jettySize=auto;html=1;entryX=0;entryY=0.5;entryDx=0;entryDy=0;" edge="1" parent="1" source="V8lNUS2OXUibBGvljUvQ-20" target="V8lNUS2OXUibBGvljUvQ-17">
          <mxGeometry relative="1" as="geometry" />
        </mxCell>
        <mxCell id="V8lNUS2OXUibBGvljUvQ-20" value="" style="triangle;whiteSpace=wrap;html=1;" vertex="1" parent="1">
          <mxGeometry x="100" y="160" width="100" height="130" as="geometry" />
        </mxCell>
        <mxCell id="V8lNUS2OXUibBGvljUvQ-27" style="edgeStyle=orthogonalEdgeStyle;rounded=0;orthogonalLoop=1;jettySize=auto;html=1;entryX=0;entryY=0.5;entryDx=0;entryDy=0;" edge="1" parent="1" source="V8lNUS2OXUibBGvljUvQ-1" target="V8lNUS2OXUibBGvljUvQ-20">
          <mxGeometry relative="1" as="geometry" />
        </mxCell>
        <mxCell id="V8lNUS2OXUibBGvljUvQ-1" value="" style="shape=sumEllipse;perimeter=ellipsePerimeter;whiteSpace=wrap;html=1;backgroundOutline=1;" vertex="1" parent="1">
          <mxGeometry x="-40" y="185" width="80" height="80" as="geometry" />
        </mxCell>
        <mxCell id="V8lNUS2OXUibBGvljUvQ-19" style="edgeStyle=orthogonalEdgeStyle;rounded=0;orthogonalLoop=1;jettySize=auto;html=1;entryX=0;entryY=0.5;entryDx=0;entryDy=0;" edge="1" parent="1" source="V8lNUS2OXUibBGvljUvQ-3" target="V8lNUS2OXUibBGvljUvQ-6">
          <mxGeometry relative="1" as="geometry" />
        </mxCell>
        <mxCell id="V8lNUS2OXUibBGvljUvQ-3" value="" style="triangle;whiteSpace=wrap;html=1;" vertex="1" parent="1">
          <mxGeometry x="290" y="308" width="100" height="130" as="geometry" />
        </mxCell>
        <mxCell id="V8lNUS2OXUibBGvljUvQ-4" value="&lt;font style=&quot;font-size: 20px;&quot;&gt;$$K_p$$&lt;/font&gt;" style="text;html=1;strokeColor=none;fillColor=none;align=center;verticalAlign=middle;whiteSpace=wrap;rounded=0;" vertex="1" parent="1">
          <mxGeometry x="110" y="210" width="60" height="30" as="geometry" />
        </mxCell>
        <mxCell id="V8lNUS2OXUibBGvljUvQ-28" style="edgeStyle=orthogonalEdgeStyle;rounded=0;orthogonalLoop=1;jettySize=auto;html=1;" edge="1" parent="1" source="V8lNUS2OXUibBGvljUvQ-5" target="V8lNUS2OXUibBGvljUvQ-1">
          <mxGeometry relative="1" as="geometry">
            <Array as="points">
              <mxPoint x="940" y="310" />
              <mxPoint x="940" y="470" />
              <mxPoint y="470" />
            </Array>
          </mxGeometry>
        </mxCell>
        <mxCell id="V8lNUS2OXUibBGvljUvQ-5" value="&lt;font style=&quot;font-size: 20px;&quot;&gt;MAS&lt;/font&gt;" style="rounded=0;whiteSpace=wrap;html=1;" vertex="1" parent="1">
          <mxGeometry x="730" y="270" width="160" height="80" as="geometry" />
        </mxCell>
        <mxCell id="V8lNUS2OXUibBGvljUvQ-16" style="edgeStyle=orthogonalEdgeStyle;rounded=0;orthogonalLoop=1;jettySize=auto;html=1;entryX=0;entryY=0.75;entryDx=0;entryDy=0;" edge="1" parent="1" source="V8lNUS2OXUibBGvljUvQ-6" target="V8lNUS2OXUibBGvljUvQ-7">
          <mxGeometry relative="1" as="geometry">
            <mxPoint x="600" y="340" as="targetPoint" />
          </mxGeometry>
        </mxCell>
        <mxCell id="V8lNUS2OXUibBGvljUvQ-6" value="&lt;font style=&quot;font-size: 20px;&quot;&gt;$$\frac{1}{s}$$&lt;/font&gt;" style="rounded=0;whiteSpace=wrap;html=1;" vertex="1" parent="1">
          <mxGeometry x="460" y="320" width="60" height="106" as="geometry" />
        </mxCell>
        <mxCell id="V8lNUS2OXUibBGvljUvQ-15" style="edgeStyle=orthogonalEdgeStyle;rounded=0;orthogonalLoop=1;jettySize=auto;html=1;entryX=0;entryY=0.5;entryDx=0;entryDy=0;" edge="1" parent="1" source="V8lNUS2OXUibBGvljUvQ-7" target="V8lNUS2OXUibBGvljUvQ-5">
          <mxGeometry relative="1" as="geometry" />
        </mxCell>
        <mxCell id="V8lNUS2OXUibBGvljUvQ-7" value="" style="rounded=0;whiteSpace=wrap;html=1;" vertex="1" parent="1">
          <mxGeometry x="600" y="240" width="80" height="140" as="geometry" />
        </mxCell>
        <mxCell id="V8lNUS2OXUibBGvljUvQ-8" value="" style="endArrow=none;html=1;rounded=0;" edge="1" parent="1">
          <mxGeometry width="50" height="50" relative="1" as="geometry">
            <mxPoint x="610" y="340" as="sourcePoint" />
            <mxPoint x="630" y="340" as="targetPoint" />
          </mxGeometry>
        </mxCell>
        <mxCell id="V8lNUS2OXUibBGvljUvQ-9" value="" style="endArrow=none;html=1;rounded=0;" edge="1" parent="1">
          <mxGeometry width="50" height="50" relative="1" as="geometry">
            <mxPoint x="620" y="350" as="sourcePoint" />
            <mxPoint x="620" y="330" as="targetPoint" />
          </mxGeometry>
        </mxCell>
        <mxCell id="V8lNUS2OXUibBGvljUvQ-10" value="" style="endArrow=none;html=1;rounded=0;" edge="1" parent="1">
          <mxGeometry width="50" height="50" relative="1" as="geometry">
            <mxPoint x="610" y="280" as="sourcePoint" />
            <mxPoint x="630" y="280" as="targetPoint" />
          </mxGeometry>
        </mxCell>
        <mxCell id="V8lNUS2OXUibBGvljUvQ-11" value="" style="endArrow=none;html=1;rounded=0;" edge="1" parent="1">
          <mxGeometry width="50" height="50" relative="1" as="geometry">
            <mxPoint x="620" y="290" as="sourcePoint" />
            <mxPoint x="620" y="270" as="targetPoint" />
            <Array as="points">
              <mxPoint x="620" y="280" />
            </Array>
          </mxGeometry>
        </mxCell>
        <mxCell id="V8lNUS2OXUibBGvljUvQ-17" value="&lt;font style=&quot;font-size: 20px;&quot;&gt;$$\frac{1}{\tau_i}$$&lt;/font&gt;" style="text;html=1;strokeColor=none;fillColor=none;align=center;verticalAlign=middle;whiteSpace=wrap;rounded=0;" vertex="1" parent="1">
          <mxGeometry x="290" y="358" width="60" height="30" as="geometry" />
        </mxCell>
        <mxCell id="V8lNUS2OXUibBGvljUvQ-29" value="" style="endArrow=classic;html=1;rounded=0;entryX=0;entryY=0.5;entryDx=0;entryDy=0;" edge="1" parent="1" target="V8lNUS2OXUibBGvljUvQ-1">
          <mxGeometry width="50" height="50" relative="1" as="geometry">
            <mxPoint x="-110" y="225" as="sourcePoint" />
            <mxPoint x="90" y="230" as="targetPoint" />
          </mxGeometry>
        </mxCell>
        <mxCell id="V8lNUS2OXUibBGvljUvQ-30" value="" style="endArrow=none;html=1;rounded=0;" edge="1" parent="1">
          <mxGeometry width="50" height="50" relative="1" as="geometry">
            <mxPoint x="-60" y="210" as="sourcePoint" />
            <mxPoint x="-60" y="190" as="targetPoint" />
          </mxGeometry>
        </mxCell>
        <mxCell id="V8lNUS2OXUibBGvljUvQ-31" value="" style="endArrow=none;html=1;rounded=0;" edge="1" parent="1">
          <mxGeometry width="50" height="50" relative="1" as="geometry">
            <mxPoint x="-50" y="200" as="sourcePoint" />
            <mxPoint x="-70" y="200" as="targetPoint" />
          </mxGeometry>
        </mxCell>
        <mxCell id="V8lNUS2OXUibBGvljUvQ-32" value="" style="endArrow=none;html=1;rounded=0;" edge="1" parent="1">
          <mxGeometry width="50" height="50" relative="1" as="geometry">
            <mxPoint x="20" y="280" as="sourcePoint" />
            <mxPoint x="40" y="280" as="targetPoint" />
          </mxGeometry>
        </mxCell>
        <mxCell id="V8lNUS2OXUibBGvljUvQ-33" value="&lt;font style=&quot;font-size: 20px;&quot;&gt;$$i_{d_{ref}}$$&lt;/font&gt;" style="text;html=1;strokeColor=none;fillColor=none;align=center;verticalAlign=middle;whiteSpace=wrap;rounded=0;" vertex="1" parent="1">
          <mxGeometry x="-170" y="210" width="60" height="30" as="geometry" />
        </mxCell>
        <mxCell id="V8lNUS2OXUibBGvljUvQ-34" value="" style="endArrow=classic;html=1;rounded=0;" edge="1" parent="1">
          <mxGeometry width="50" height="50" relative="1" as="geometry">
            <mxPoint x="940" y="310" as="sourcePoint" />
            <mxPoint x="990" y="310" as="targetPoint" />
          </mxGeometry>
        </mxCell>
        <mxCell id="V8lNUS2OXUibBGvljUvQ-35" value="&lt;font style=&quot;font-size: 20px;&quot;&gt;$$i_{d}$$&lt;/font&gt;" style="text;html=1;strokeColor=none;fillColor=none;align=center;verticalAlign=middle;whiteSpace=wrap;rounded=0;" vertex="1" parent="1">
          <mxGeometry x="980" y="295" width="60" height="30" as="geometry" />
        </mxCell>
        <mxCell id="V8lNUS2OXUibBGvljUvQ-36" value="&lt;font style=&quot;font-size: 20px;&quot;&gt;$$\equiv$$&lt;/font&gt;" style="text;html=1;strokeColor=none;fillColor=none;align=center;verticalAlign=middle;whiteSpace=wrap;rounded=0;rotation=-90;" vertex="1" parent="1">
          <mxGeometry x="780" y="235" width="60" height="30" as="geometry" />
        </mxCell>
        <mxCell id="V8lNUS2OXUibBGvljUvQ-37" value="&lt;font style=&quot;font-size: 20px;&quot;&gt;$$Z_{eq}$$&lt;/font&gt;" style="text;html=1;strokeColor=none;fillColor=none;align=center;verticalAlign=middle;whiteSpace=wrap;rounded=0;" vertex="1" parent="1">
          <mxGeometry x="780" y="210" width="60" height="30" as="geometry" />
        </mxCell>
      </root>
    </mxGraphModel>
  </diagram>
</mxfile>
